<?xml version="1.0" encoding="utf-8"?>
<!-- Generator: Adobe Illustrator 27.0.0, SVG Export Plug-In . SVG Version: 6.00 Build 0)  -->
<svg version="1.1" id="Layer_1" xmlns="http://www.w3.org/2000/svg" xmlns:xlink="http://www.w3.org/1999/xlink" x="0px" y="0px"
	 viewBox="0 0 1366 768" style="enable-background:new 0 0 1366 768;" xml:space="preserve">
<style type="text/css">
	.st0{fill:#55B0C6;}
	.st1{fill:#FFFFFF;}
</style>
<g>
	<g>
		<path class="st0" d="M694.3,125c123.8,0,247.5,0,371.3-0.1c2.6,0,3,0.6,3,3.1c-0.1,179.2-0.1,358.3,0,537.5c0,2.5-0.4,3.1-3,3.1
			c-247.4-0.1-494.9-0.1-742.3,0c-2.7,0-3.2-0.7-3.2-3.3c0.1-179.2,0.1-358.3,0-537.5c0-2.3,0.4-2.9,2.9-2.9
			C446.8,125,570.6,125,694.3,125z M588.5,211.2c-12.3-20.9-25.6-33.1-39-42.1c-26.9-18.1-57.2-25.3-89.1-25.6
			c-40.1-0.5-80.2-0.1-120.3-0.2c-3.1,0-3.8,0.9-3.8,3.9c0.1,51.5,0.1,103.1,0.1,154.6c0,38,0,76,0,114c0,2-0.1,3.5,2.8,3.4
			c40.7-0.1,81.5-0.1,122.2-0.2c2.2,0,4.6,0.3,6.4-1c11.9-8.6,24.4-16.4,33.8-28c12.5-15.6,24.8-31.4,33.4-49.8
			c2.7-5.8,6.3-11.1,10.4-16.1c8.6-10.6,17.5-20.9,26.8-30.9c12.1-13,18.6-27.9,18.5-45.7c0-5.5,0.7-11.1,1-16.6
			c0.1-1.2,0.1-2.5,1.9-1.9c8.8,2.8,16.8,6.7,21.1,15.6c2.2,4.4,3.9,9,5.3,13.8c2,6.6,6.2,11.3,12.4,14.2c3.7,1.8,7.7,2.8,11.5,4.2
			c10.9,3.9,20.2,9.8,25.4,20.6c1.7,3.5,4.1,5.8,7.5,7.1c2.4,0.9,4.9,1.9,7.4,2.6c10,2.7,20.1,5.3,30,8.1c5.8,1.6,7.6,5.4,4.9,10.8
			c-4.8,9.6-11.8,16.7-22.2,20.2c-8.6,2.9-17.1,2.1-25.6-0.6c-2.3-0.7-4.5-1.3-7.5-0.3c4.6,2.7,8.7,5,12.7,7.4
			c9.9,6,17.3,14,19.3,25.8c1,5.8,1.7,11.7-2.7,16.7c-0.8,0.9-1.5,2.4-3,1.8s-1-2.1-0.7-3.3c0.8-4.1,0.4-8.2-0.4-12.2
			c-0.2-1.2-0.4-2.6-2.4-1.7c-9.4,4.5-18.2,2.1-26.6-2.8c-3.9-2.2-7.8-4.5-11.9-6.3c-2-0.9-3.1-0.5-4.4,1.3
			c-7.5,10.5-11.8,21.9-10.9,35c0.2,2.6,0.9,3.8,3.4,4.6c20.9,6.2,42.3,9.5,64.1,9.9c14,0.3,27.9-1.1,41.5-4.3
			c18.6-4.4,35.8-11.8,50-25.1c1.7-1.6,3.1-3.5,4.6-5.2c0.3,0.2,0.6,0.4,0.9,0.6c0,9.4,0.1,18.8-0.1,28.3c-0.1,2.8,0.7,3.5,3.5,3.5
			c36.2-0.1,72.4-0.1,108.7-0.1c6.3,0,12.6-0.1,18.9-0.4c18.1-1.1,35.8-4.3,52.7-10.9c35.5-13.7,61.6-37.4,75.7-73.2
			c10.8-27.6,12.3-56.2,6.6-85c-6.8-34.1-24.3-61.5-53.5-81c-26.8-17.9-56.9-24.8-88.6-25.2c-40-0.4-80-0.1-120-0.2
			c-3.3,0-4,0.9-4,4c0.1,44.3,0.1,88.6,0,132.9c0,1.1,0.4,2.4-0.6,3.6c-2.7-2.4-5.2-4.7-7.9-6.9c-12.9-10.2-27.7-16.6-43.1-21.4
			c-15.7-4.9-31.6-9.2-47.3-14c-7.3-2.2-14.5-5-20.5-10.1c-4.6-3.9-7.1-8.8-6-15c1.3-7.2,6.7-10,13.1-11.4c9.2-2,18.3-0.5,27.4,1.5
			c20.9,4.8,41,12,60.7,20.2c3.1,1.3,3.2,1.3,3.2-2.2c0-22.8-0.1-45.6,0.1-68.3c0-3-1-4.1-3.7-4.9c-22.2-7-44.9-11-68.3-11.3
			c-20.8-0.3-41.2,2-60.8,9.6c-16.9,6.5-31.5,16.2-42.2,31C594.9,189.6,590.7,199.7,588.5,211.2z M720.7,485c0.2,0,0.5,0.1,0.7,0.1
			c0,1,0,2,0,3c0,24.6,0,49.1,0,73.7c0,2.3,0.3,3.3,3,3.2c6.4-0.2,12.8-0.2,19.2,0c2.1,0,2.6-0.6,2.6-2.7
			c-0.1-38.7-0.1-77.5,0-116.2c0-2-0.5-2.6-2.6-2.6c-8.5,0.1-17,0.1-25.5,0c-1.9,0-2.9,0.5-3.7,2.4c-9.1,19.3-18.2,38.6-27.4,57.9
			c-2.1,4.4-4.2,8.8-6.5,13.6c-0.5-1-0.8-1.5-1.1-2.1c-11-23-22-46.1-32.9-69.1c-0.8-1.8-1.7-2.7-3.9-2.6c-8.6,0.2-17.2,0.1-25.8,0
			c-2,0-2.4,0.6-2.4,2.5c0.1,38.8,0.1,77.7,0,116.5c0,1.9,0.5,2.5,2.4,2.5c6.2-0.1,12.4-0.2,18.6,0c3,0.1,4-0.5,4-3.9
			c-0.2-24.2-0.1-48.5-0.1-72.7c0-1-0.2-2.2,0.5-3.6c0.5,1,0.8,1.7,1.1,2.3c9.8,21.1,19.6,42.1,29.3,63.2c0.8,1.8,1.8,2.5,3.7,2.4
			c4.4-0.2,8.8-0.1,13.2,0c1.6,0,2.4-0.4,3-1.9c3.4-7.6,7-15.2,10.5-22.8C707.4,513.6,714.1,499.3,720.7,485z M893.5,521
			c-1.1-1.4-1.7-2.1-2.2-2.8c-18.3-24.2-36.5-48.3-54.8-72.6c-1.2-1.6-2.4-2.2-4.4-2.2c-6.6,0.1-13.2,0.1-19.8,0
			c-2.1,0-2.6,0.6-2.6,2.6c0.1,38.7,0.1,77.4,0,116.2c0,2.3,0.8,2.7,2.8,2.7c6.7-0.1,13.4-0.2,20.1,0c2.7,0.1,3.5-0.5,3.5-3.4
			c-0.1-23.4-0.1-46.8-0.1-70.2c0-1-0.3-2.2,0.4-3.3c0.7,0.8,1.2,1.5,1.7,2.2c18.3,24.2,36.5,48.4,54.7,72.6
			c1.1,1.5,2.2,2.2,4.1,2.2c6.7-0.1,13.4-0.1,20.1,0c2,0,2.5-0.6,2.5-2.5c-0.1-38.8-0.1-77.7,0-116.5c0-1.9-0.5-2.5-2.5-2.5
			c-7,0.1-14.1,0.2-21.1,0c-2.3-0.1-2.7,0.7-2.7,2.8c0.1,12.1,0.1,24.1,0.1,36.2C893.5,495.1,893.5,507.6,893.5,521z M340.5,504.2
			c0,19.2,0,38.4-0.1,57.6c0,2.5,0.7,3.1,3.1,3.1c15.7-0.1,31.5,0,47.2-0.1c11.8-0.1,23.1-2.2,33.7-7.7
			c26.2-13.6,35.7-41.5,29.5-68.4c-6.2-27.2-28.9-43.8-57-45c-17.8-0.7-35.7-0.2-53.5-0.3c-2.5,0-3.1,0.6-3.1,3.1
			C340.5,465.8,340.5,485,340.5,504.2z M993.7,566.1c9,0.1,17.6-1.3,25.9-4.6c23-9.4,36.8-26.4,39.2-51.3
			c2.3-23.3-6.4-42.4-25.8-55.9c-15.5-10.8-32.9-13.3-51.3-10.6c-42.1,6-65.7,51.2-46,88.8C947.8,555.6,968.3,565.2,993.7,566.1z
			 M543.7,442.8c-45.9-0.5-76.4,28-72.9,67.3c1.3,15.2,7.5,28.4,18.8,38.6c19.2,17.2,41.8,21.3,66,14.5c44.4-12.5,56.2-61,35.4-92.3
			C578.1,451.3,558.8,443.2,543.7,442.8z M764.2,504.2c0,19.2,0,38.4,0,57.6c0,2.2,0.3,3.3,3,3.2c7.3-0.2,14.7-0.1,22,0
			c2.1,0,2.6-0.6,2.6-2.7c-0.1-38.7-0.1-77.4,0-116.1c0-2.3-0.8-2.7-2.9-2.7c-7.2,0.1-14.5,0.2-21.7,0c-2.5-0.1-3.1,0.7-3,3.1
			C764.3,465.8,764.2,485,764.2,504.2z M781.6,616.7c0,9.1,0,18.3,0,27.4c0,5.7,0,5.8,5.8,5.6c9.7-0.2,19.5,0.9,29.2-0.7
			c16.3-2.7,27.5-16.5,27.1-33.2c-0.5-16.9-12.1-29.9-28.6-31.7c-10.6-1.2-21.2-0.2-31.8-0.5c-2.2-0.1-1.7,1.4-1.7,2.6
			C781.6,596.3,781.6,606.5,781.6,616.7z M514.5,649.7c-4.2-6.4-8.1-12.2-11.9-18.1c-2.3-3.5-2.3-3.5,1.2-5.9
			c7.6-5.1,11-15.3,8.6-25.8c-2-8.6-9.3-14.7-19.3-15.8c-10.9-1.2-21.8-0.2-32.7-0.6c-1.7-0.1-1.8,0.8-1.8,2.1c0,20.7,0,41.3,0,62
			c0,1.8,0.7,2.1,2.2,2.1c2.8-0.1,5.7-0.1,8.5,0c1.8,0.1,2.3-0.4,2.3-2.2c-0.1-5,0-10.1-0.1-15.1c0-1.8,0.5-2.3,2.3-2.3
			c4.1,0.1,8.2,0.1,12.3,0c1.8-0.1,2.8,0.5,3.7,2.1c2.9,5.2,6,10.3,9,15.5c0.6,1.1,1.2,2.1,2.8,2
			C505.6,649.7,509.8,649.7,514.5,649.7z M887.5,583.2c-1.6,0.1-3.1,0.2-4.7,0.3c-23.8,1.7-38.3,27.1-27.3,48.3
			c7,13.5,19,18.8,33.8,18.5c22.8-0.5,38.6-23,31.3-44.4C915.9,592.3,903.5,583.8,887.5,583.2z M686.3,616.8
			c0,10.1,0.1,20.2-0.1,30.2c0,2.3,0.7,2.8,2.8,2.7c12.9-0.1,25.8,0,38.7-0.1c2.6,0,6.1,0.9,7.6-0.4c1.8-1.6,0.3-5.1,0.6-7.8
			c0.3-2.3-0.5-3-2.9-3c-10.5,0.1-21,0-31.5,0.1c-1.8,0-2.6-0.4-2.5-2.4c0.1-3.9,0.2-7.8,0-11.6c-0.1-2.2,0.8-2.6,2.7-2.6
			c7,0.1,14.1,0.1,21.1,0c2.7,0,6.2,1.2,7.9-0.5c1.6-1.7,0.2-5.2,0.5-7.9c0.2-2.3-0.8-2.8-2.9-2.7c-8.8,0.1-17.6,0-26.5,0.1
			c-2.1,0-3-0.4-2.9-2.7c0.2-3.7,0.2-7.4,0-11c-0.1-2,0.6-2.4,2.5-2.4c8.3,0.1,16.6,0.1,24.9,0c2.7,0,6.3,1.2,7.9-0.5
			c1.7-1.8,0.3-5.4,0.5-8.2c0.2-2.1-0.5-2.6-2.6-2.6c-14.4,0.1-28.8,0.1-43.1,0c-2.5,0-2.9,0.9-2.9,3.1
			C686.4,596.7,686.3,606.8,686.3,616.8z M396.3,616.7c0,10.2,0.1,20.4-0.1,30.5c0,2.1,0.6,2.6,2.6,2.6c12.9-0.1,25.8,0,38.7-0.1
			c2.7,0,6.2,1.2,7.8-0.6c1.3-1.6,0.3-5,0.5-7.6c0.2-2.4-0.6-3-3-3c-10.5,0.1-21,0-31.5,0.1c-1.8,0-2.6-0.3-2.5-2.4
			c0.2-3.9,0.2-7.8,0-11.6c-0.1-2,0.5-2.7,2.6-2.6c7.1,0.1,14.3,0.1,21.4,0c2.6,0,6.1,0.9,7.6-0.4c1.8-1.6,0.3-5.1,0.6-7.8
			c0.3-2.3-0.5-3-2.9-3c-8.8,0.2-17.6,0-26.5,0.1c-2.5,0-3-0.7-2.9-3c0.2-3.5,0.2-6.9,0-10.4c-0.1-2.1,0.4-2.8,2.7-2.8
			c8.3,0.2,16.6,0.1,24.9,0c2.7,0,6.4,1.2,7.8-0.6c1.4-1.7,0.3-5.2,0.5-7.9c0.2-2.2-0.6-2.8-2.8-2.8c-14.4,0.1-28.8,0.1-43.1,0
			c-2.4,0-2.7,0.9-2.7,2.9C396.4,596.5,396.3,606.6,396.3,616.7z M1005.3,628.9c-1.4,2.9-2.6,5.8-4.2,8.3c-1.3,2.1-0.5,3.1,1.1,4.3
			c10.1,7.3,21.3,10.3,33.5,8c7.9-1.5,14.5-5.3,16.9-13.7c2.8-9.6-1.3-17.5-11-21.8c-4.5-2-9.3-3.1-14-4.7c-2.5-0.8-5-1.7-7-3.4
			c-1.9-1.6-2.9-3.6-2.5-6.1c0.4-2.4,2.2-3.7,4.4-4.4c3.1-1,6.2-0.9,9.3-0.3c5.6,1,10.7,3.3,15.7,6c1.5-3.3,3-6.3,4.4-9.3
			c0.5-1,0.9-1.8-0.5-2.6c-11.7-6.3-23.8-8.6-36.5-3.5c-7.1,2.9-11,8.5-11,16.4s4.3,12.8,11.2,15.9c3.8,1.7,7.9,2.7,11.9,3.9
			c3.2,1,6.5,1.8,9.2,3.8c2.1,1.5,3.3,3.5,3.1,6.1c-0.3,2.8-2,4.5-4.6,5.5c-1.2,0.4-2.4,0.7-3.6,0.9c-5.6,0.8-10.8-0.7-15.8-3
			C1011.8,633.7,1008.6,631.3,1005.3,628.9z M359.2,650.3c3.5,0,6.9-0.5,10.3-1.4c8.8-2.4,14.6-8.9,15-16.9
			c0.5-8.9-3.4-14.5-12.7-18.4c-3.7-1.5-7.5-2.5-11.3-3.7c-3.2-1-6.5-1.9-9-4.3c-3.7-3.4-2.8-8.3,1.9-10c1.4-0.5,2.9-0.7,4.3-0.8
			c5.5-0.3,10.5,1.4,15.5,3.5c1.9,0.8,4.5,2.9,5.4,2.3c1.6-1,2.1-3.6,3.1-5.6c2.5-5.3,2.5-5.4-2.8-7.7c-10.9-4.8-22-6.3-33.2-1.3
			c-6.5,2.9-10.2,8.1-10.4,15.5c-0.2,7.6,3.3,12.7,10,16c4.2,2,8.6,3.2,13,4.5c3.2,0.9,6.5,1.8,9.2,3.8c4.7,3.3,4.1,9.2-1.2,11.5
			c-1.2,0.5-2.6,0.8-3.9,1c-7,0.9-13.2-1.5-19.2-4.7c-2.4-1.3-4.6-5-6.8-3.9c-2.1,1.1-2.7,5-4.1,7.5c-1,1.8-0.7,2.9,1,4.2
			C341,647.1,349.6,650.1,359.2,650.3z M991.6,629.7c0-1.4,0.1-2.7,0-4.1c-0.2-2.9,1.3-6.9-0.6-8.4c-1.8-1.5-5.6-0.4-8.5-0.5
			c-0.1,0-0.2,0-0.3,0c-1.4-0.2-1.8,0.4-1.8,1.8c0.1,3,0,6.1,0,9.1c0,8.2,0,8.2-8.1,10.4c-9.1,2.4-18.6-0.7-24.2-8
			c-5.3-6.9-6-16.5-1.6-24.3c6-10.7,20-14.1,32-8.1c2.4,1.2,4.4,4.6,6.7,3.6c2.3-0.9,3.5-4.3,5.4-6.4c1.8-1.9,1-2.9-0.8-4
			c-10.8-7.4-22.5-9.6-35-5.9c-12.3,3.7-20.8,11.7-23.5,24.6c-2.7,13.2,1,24.6,11.6,33.1c14.3,11.6,34.4,8.7,47.6-0.2
			c1.1-0.7,1.1-1.6,1.1-2.7C991.6,636.5,991.6,633.1,991.6,629.7z M650.5,583.2c-1,0.1-2,0.1-3,0.2c-25.3,1.2-40.1,29-27.1,50.7
			c10.7,17.8,35.2,21.6,52.4,8c3.8-3,3.8-3,0.7-6.4c-0.9-1-1.9-2-2.7-3.1c-1.2-1.7-2.1-2.2-4.1-0.5c-4.3,3.8-9.4,5.9-15.2,6.1
			c-9.4,0.4-18-5.3-21.2-13.8c-3.3-8.7-0.8-18.8,6.1-24.6c7.5-6.2,17.8-6.8,26.4-1.7c2.3,1.4,4,5.1,6.5,4.1c2.3-0.9,3.6-4.1,5.4-6.4
			c0.1-0.2,0.2-0.4,0.4-0.5c1.3-1.1,0.9-1.9-0.3-2.9C667.8,586.5,659.7,583.4,650.5,583.2z M518.1,583.6c0.4,1.1,0.6,1.8,0.9,2.6
			c7.1,17.9,14.1,35.8,21.2,53.7c1.3,3.3,1.6,7.9,4.3,9.4s6.9,0.3,10.5,0.5c2,0.1,2.7-0.7,3.3-2.4c2.4-6.1,4.9-12.2,7.3-18.3
			c5.7-14.3,11.4-28.6,17.2-42.8c0.9-2.3,0.5-2.9-1.9-2.7c-2,0.2-4,0.2-6,0c-3.3-0.4-4.8,0.8-6,4c-5.7,15.8-11.8,31.5-17.8,47.6
			c-0.6-1.5-1.1-2.6-1.5-3.8c-5.7-15.1-11.3-30.2-16.9-45.2c-0.4-1.2-0.5-2.7-2.5-2.6C526.2,583.7,522.3,583.6,518.1,583.6z
			 M592,616.6c0,10,0.1,19.9-0.1,29.9c0,2.5,0.4,3.7,3.2,3.3c2-0.2,4-0.2,6,0c2.9,0.3,3.9-0.5,3.8-3.6c-0.2-17.6-0.1-35.2-0.1-52.8
			c0-3.1,1.3-7.2-0.5-9.1c-2-2-6.2-0.3-9.4-0.7c-2.7-0.3-3,0.9-3,3.2C592.1,596.7,592,606.7,592,616.6z"/>
		<path class="st1" d="M588.5,211.2c2.2-11.4,6.4-21.5,13-30.6c10.7-14.9,25.4-24.5,42.2-31c19.6-7.5,40-9.9,60.8-9.6
			c23.4,0.3,46,4.3,68.3,11.3c2.7,0.9,3.8,1.9,3.7,4.9c-0.2,22.8-0.1,45.6-0.1,68.3c0,3.5,0,3.5-3.2,2.2
			c-19.8-8.2-39.8-15.5-60.7-20.2c-9-2.1-18.1-3.5-27.4-1.5c-6.4,1.4-11.8,4.2-13.1,11.4c-1.1,6.2,1.4,11.1,6,15
			c6,5,13.1,7.9,20.5,10.1c15.7,4.8,31.6,9,47.3,14c15.5,4.8,30.3,11.2,43.1,21.4c2.7,2.1,5.2,4.5,7.9,6.9c1-1.1,0.6-2.4,0.6-3.6
			c0-44.3,0.1-88.6,0-132.9c0-3.1,0.7-4,4-4c40,0.1,80-0.3,120,0.2c31.7,0.3,61.8,7.3,88.6,25.2c29.2,19.5,46.7,46.9,53.5,81
			c5.7,28.9,4.3,57.4-6.6,85c-14.1,35.8-40.1,59.5-75.7,73.2c-17,6.5-34.6,9.8-52.7,10.9c-6.3,0.4-12.6,0.4-18.9,0.4
			c-36.2,0-72.4,0-108.7,0.1c-2.8,0-3.6-0.7-3.5-3.5c0.2-9.4,0.1-18.8,0.1-28.3c-0.3-0.2-0.6-0.4-0.9-0.6c-1.5,1.7-2.9,3.6-4.6,5.2
			c-14.2,13.3-31.4,20.7-50,25.1c-13.6,3.2-27.5,4.6-41.5,4.3c-21.8-0.4-43.2-3.7-64.1-9.9c-2.6-0.8-3.2-1.9-3.4-4.6
			c-0.9-13.1,3.4-24.5,10.9-35c1.3-1.8,2.4-2.2,4.4-1.3c4.1,1.8,8,4.1,11.9,6.3c8.5,4.8,17.2,7.3,26.6,2.8c2-0.9,2.2,0.5,2.4,1.7
			c0.8,4,1.2,8.1,0.4,12.2c-0.2,1.2-0.8,2.7,0.7,3.3c1.5,0.6,2.2-0.9,3-1.8c4.4-5,3.7-10.9,2.7-16.7c-2-11.9-9.4-19.8-19.3-25.8
			c-4-2.4-8.1-4.7-12.7-7.4c3-0.9,5.2-0.4,7.5,0.3c8.5,2.7,17,3.5,25.6,0.6c10.4-3.5,17.4-10.6,22.2-20.2c2.7-5.4,0.9-9.2-4.9-10.8
			c-10-2.8-20-5.4-30-8.1c-2.5-0.7-5-1.6-7.4-2.6c-3.5-1.3-5.9-3.7-7.5-7.1c-5.2-10.8-14.5-16.7-25.4-20.6
			c-3.8-1.4-7.8-2.4-11.5-4.2c-6.2-3-10.4-7.6-12.4-14.2c-1.4-4.7-3.2-9.3-5.3-13.8c-4.3-8.9-12.3-12.8-21.1-15.6
			c-1.8-0.6-1.8,0.7-1.9,1.9c-0.3,5.5-1,11.1-1,16.6c0.1,17.8-6.4,32.7-18.5,45.7c-9.3,10-18.2,20.3-26.8,30.9
			c-4,5-7.7,10.2-10.4,16.1c-8.5,18.3-20.8,34.1-33.4,49.8c-9.3,11.7-21.9,19.5-33.8,28c-1.8,1.3-4.3,1-6.4,1
			c-40.7,0.1-81.5,0.1-122.2,0.2c-3,0-2.8-1.4-2.8-3.4c0-38,0-76,0-114c0-51.5,0-103.1-0.1-154.6c0-3,0.7-3.9,3.8-3.9
			c40.1,0.1,80.2-0.3,120.3,0.2c31.9,0.4,62.2,7.5,89.1,25.6C562.9,178.1,576.2,190.2,588.5,211.2z M879.5,281.5c0,17.5,0,35,0,52.6
			c0,6.1,0,12.2,0,18.3c0,1.5,0,2.6,2.1,2.6c15.4-0.3,30.9,0.9,46.2-0.6c20.8-2,36.2-12.7,45.7-31.2c11.6-22.7,12.5-46.6,4.9-70.5
			c-8.7-27.5-31.1-43.8-59.8-44.5c-12-0.3-23.9,0-35.9-0.2c-2.7,0-3.3,0.9-3.2,3.4C879.6,234.7,879.5,258.1,879.5,281.5z
			 M418.3,281.1c0,23.5,0,47,0,70.5c0,2.3,0.4,3.3,3,3.3c13.3-0.1,26.7,0.3,40-0.1c21.2-0.6,38.2-9.6,49-28.1
			c13.6-23.2,14.9-48.2,7.1-73.5c-8.6-27.9-31-44.5-60.2-45.2c-11.7-0.3-23.5,0-35.3-0.1c-2.9,0-3.7,0.7-3.7,3.6
			C418.4,234.8,418.3,258,418.3,281.1z"/>
		<path class="st1" d="M720.7,485c-6.6,14.3-13.3,28.6-19.9,42.9c-3.5,7.6-7.1,15.2-10.5,22.8c-0.7,1.5-1.5,2-3,1.9
			c-4.4-0.1-8.8-0.1-13.2,0c-2,0.1-2.9-0.6-3.7-2.4c-9.7-21.1-19.5-42.1-29.3-63.2c-0.3-0.6-0.6-1.3-1.1-2.3
			c-0.8,1.4-0.5,2.5-0.5,3.6c0,24.2-0.1,48.5,0.1,72.7c0,3.3-1,4-4,3.9c-6.2-0.2-12.4-0.2-18.6,0c-2,0-2.4-0.6-2.4-2.5
			c0.1-38.8,0.1-77.7,0-116.5c0-1.9,0.3-2.5,2.4-2.5c8.6,0.1,17.2,0.2,25.8,0c2.2,0,3.1,0.8,3.9,2.6c10.9,23.1,21.9,46.1,32.9,69.1
			c0.3,0.5,0.5,1.1,1.1,2.1c2.3-4.8,4.4-9.2,6.5-13.6c9.2-19.3,18.4-38.5,27.4-57.9c0.9-1.8,1.8-2.4,3.7-2.4c8.5,0.1,17,0.1,25.5,0
			c2.1,0,2.6,0.6,2.6,2.6c-0.1,38.7-0.1,77.5,0,116.2c0,2-0.4,2.7-2.6,2.7c-6.4-0.1-12.8-0.2-19.2,0c-2.7,0.1-3-1-3-3.2
			c0.1-24.6,0-49.1,0-73.7c0-1,0-2,0-3C721.2,485,720.9,485,720.7,485z"/>
		<path class="st1" d="M893.5,521c0-13.4,0-26,0-38.5c0-12.1,0.1-24.1-0.1-36.2c0-2.1,0.4-2.9,2.7-2.8c7,0.2,14.1,0.1,21.1,0
			c2,0,2.5,0.6,2.5,2.5c-0.1,38.8-0.1,77.7,0,116.5c0,1.9-0.5,2.5-2.5,2.5c-6.7-0.1-13.4-0.1-20.1,0c-1.9,0-3-0.7-4.1-2.2
			c-18.2-24.2-36.5-48.4-54.7-72.6c-0.5-0.7-1-1.3-1.7-2.2c-0.7,1.1-0.4,2.3-0.4,3.3c0,23.4-0.1,46.8,0.1,70.2
			c0,2.9-0.8,3.5-3.5,3.4c-6.7-0.2-13.4-0.1-20.1,0c-2.1,0-2.9-0.4-2.8-2.7c0.1-38.7,0.1-77.4,0-116.2c0-2,0.5-2.6,2.6-2.6
			c6.6,0.1,13.2,0.1,19.8,0c2,0,3.2,0.6,4.4,2.2c18.2,24.2,36.5,48.4,54.8,72.6C891.8,519,892.4,519.7,893.5,521z"/>
		<path class="st1" d="M340.5,504.2c0-19.2,0-38.4-0.1-57.6c0-2.5,0.6-3.1,3.1-3.1c17.8,0.1,35.7-0.4,53.5,0.3
			c28,1.2,50.8,17.8,57,45c6.1,27-3.3,54.9-29.5,68.4c-10.6,5.5-21.9,7.6-33.7,7.7c-15.7,0.1-31.5,0-47.2,0.1
			c-2.5,0-3.1-0.6-3.1-3.1C340.5,542.7,340.5,523.4,340.5,504.2z M368,503.8c0,11.7,0.1,23.3-0.1,35c0,2.5,0.7,2.9,3,2.9
			c7.6-0.1,15.1,0,22.7-0.1c8.8-0.1,16.7-3,23-9.3c9.9-9.7,12.4-21.8,10.5-35c-2.3-16-13.9-27.8-29.8-30.2
			c-8.6-1.3-17.4-0.3-26.1-0.6c-2.5-0.1-3.4,0.5-3.3,3.2C368.1,481.1,368,492.5,368,503.8z"/>
		<path class="st1" d="M993.7,566.1c-25.3-0.8-45.9-10.5-58-33.6c-19.7-37.6,4-82.9,46-88.8c18.4-2.6,35.8-0.1,51.3,10.6
			c19.4,13.5,28,32.6,25.8,55.9c-2.4,24.9-16.2,41.8-39.2,51.3C1011.3,564.8,1002.6,566.2,993.7,566.1z M1030.9,504.2
			c0-21-16.3-37.7-36.7-37.5c-20.7,0.2-37.3,16.9-37.2,37.6c0.1,20.9,17,37.9,37.4,37.8C1014.8,541.9,1030.9,525.2,1030.9,504.2z"/>
		<path class="st1" d="M543.7,442.8c15.1,0.4,34.3,8.5,47.4,28.1c20.8,31.3,8.9,79.8-35.4,92.3c-24.2,6.8-46.9,2.7-66-14.5
			c-11.4-10.2-17.5-23.4-18.8-38.6C467.3,470.8,497.9,442.3,543.7,442.8z M536.1,466.7c-20.6,0-37.2,16.6-37.5,37.4
			c-0.2,20.5,16.9,37.9,37.4,37.9c20.3,0,36.6-16.8,36.7-37.7C572.8,483.5,556.4,466.7,536.1,466.7z"/>
		<path class="st1" d="M764.2,504.2c0-19.2,0-38.4-0.1-57.6c0-2.4,0.5-3.2,3-3.1c7.2,0.2,14.5,0.1,21.7,0c2.1,0,2.9,0.4,2.9,2.7
			c-0.1,38.7-0.1,77.4,0,116.1c0,2-0.5,2.7-2.6,2.7c-7.3-0.1-14.7-0.2-22,0c-2.7,0.1-3-1-3-3.2C764.3,542.6,764.2,523.4,764.2,504.2
			z"/>
		<path class="st1" d="M781.6,616.7c0-10.2,0-20.4,0-30.5c0-1.1-0.5-2.6,1.7-2.6c10.6,0.3,21.2-0.7,31.8,0.5
			c16.5,1.8,28.1,14.9,28.6,31.7c0.5,16.6-10.7,30.5-27.1,33.2c-9.7,1.6-19.5,0.5-29.2,0.7c-5.8,0.1-5.8,0-5.8-5.6
			C781.6,634.9,781.6,625.8,781.6,616.7z M794.5,616.4c0,6.4,0.1,12.8,0,19.2c0,2.1,0.3,3,2.7,2.8c4.3-0.2,8.6,0,12.9-0.1
			c11-0.1,19.5-8.1,20.5-19.1c1-12.1-5.9-21.8-17-23.9c-5.5-1-11.1-0.3-16.6-0.6c-2-0.1-2.5,0.5-2.4,2.4
			C794.6,603.6,794.5,610,794.5,616.4z"/>
		<path class="st1" d="M514.5,649.7c-4.7,0-8.9-0.1-13.1,0c-1.6,0.1-2.1-0.9-2.8-2c-3-5.2-6.1-10.3-9-15.5c-0.9-1.6-1.9-2.2-3.7-2.1
			c-4.1,0.1-8.2,0.1-12.3,0c-1.8-0.1-2.4,0.4-2.3,2.3c0.1,5,0,10.1,0.1,15.1c0,1.8-0.5,2.3-2.3,2.2c-2.8-0.1-5.7-0.1-8.5,0
			c-1.6,0.1-2.2-0.3-2.2-2.1c0.1-20.7,0-41.3,0-62c0-1.3,0.1-2.2,1.8-2.1c10.9,0.3,21.8-0.7,32.7,0.6c10,1.1,17.4,7.2,19.3,15.8
			c2.4,10.5-1,20.7-8.6,25.8c-3.6,2.4-3.5,2.4-1.2,5.9C506.4,637.5,510.3,643.4,514.5,649.7z M471.4,606.8c0,3.5,0,6.9,0,10.4
			c0,1.2,0,2,1.6,2c5.8-0.2,11.5,0.3,17.3-0.4c6.4-0.8,10.1-4.8,10.4-11c0.3-6.9-2.7-11-9.4-12.3c-6.1-1.2-12.3-0.3-18.5-0.6
			c-1.5-0.1-1.3,0.9-1.3,1.8C471.4,600,471.4,603.4,471.4,606.8z"/>
		<path class="st1" d="M887.5,583.2c16,0.6,28.4,9.1,33,22.6c7.3,21.5-8.4,43.9-31.3,44.4c-14.8,0.4-26.8-4.9-33.8-18.5
			c-11-21.2,3.5-46.6,27.3-48.3C884.3,583.4,885.9,583.3,887.5,583.2z M887.1,594.7c-12.2,0-22.1,9.8-22.3,21.8
			c-0.1,12.2,10.2,22.4,22.5,22.3c12-0.1,21.9-10.1,21.9-22.2C909.2,604.6,899.2,594.7,887.1,594.7z"/>
		<path class="st1" d="M686.3,616.8c0-10.1,0.1-20.2,0-30.2c0-2.2,0.3-3.1,2.9-3.1c14.4,0.1,28.8,0.1,43.1,0c2.1,0,2.8,0.5,2.6,2.6
			c-0.3,2.8,1.1,6.4-0.5,8.2c-1.5,1.7-5.2,0.5-7.9,0.5c-8.3,0.1-16.6,0.1-24.9,0c-1.9,0-2.6,0.4-2.5,2.4c0.2,3.7,0.2,7.4,0,11
			c-0.1,2.3,0.8,2.7,2.9,2.7c8.8-0.1,17.6,0,26.5-0.1c2.1,0,3.1,0.4,2.9,2.7c-0.3,2.7,1.1,6.2-0.5,7.9s-5.2,0.5-7.9,0.5
			c-7,0.1-14.1,0.1-21.1,0c-1.9,0-2.8,0.3-2.7,2.6c0.2,3.9,0.2,7.8,0,11.6c-0.1,2,0.7,2.4,2.5,2.4c10.5-0.1,21,0,31.5-0.1
			c2.4,0,3.2,0.7,2.9,3c-0.3,2.7,1.1,6.3-0.6,7.8c-1.5,1.3-5,0.4-7.6,0.4c-12.9,0-25.8,0-38.7,0.1c-2.1,0-2.9-0.5-2.8-2.7
			C686.4,637,686.3,626.9,686.3,616.8z"/>
		<path class="st1" d="M396.3,616.7c0-10.1,0.1-20.2,0-30.2c0-2,0.3-2.9,2.7-2.9c14.4,0.1,28.8,0.1,43.1,0c2.2,0,3,0.6,2.8,2.8
			c-0.2,2.7,0.8,6.2-0.5,7.9c-1.4,1.8-5.1,0.5-7.8,0.6c-8.3,0.1-16.6,0.1-24.9,0c-2.3,0-2.8,0.7-2.7,2.8c0.2,3.5,0.2,6.9,0,10.4
			c-0.1,2.3,0.4,3,2.9,3c8.8-0.2,17.6,0,26.5-0.1c2.4,0,3.2,0.6,2.9,3c-0.3,2.7,1.1,6.3-0.6,7.8c-1.5,1.3-5,0.4-7.6,0.4
			c-7.1,0-14.3,0.1-21.4,0c-2.1,0-2.7,0.6-2.6,2.6c0.2,3.9,0.2,7.8,0,11.6c-0.1,2.1,0.7,2.4,2.5,2.4c10.5-0.1,21,0,31.5-0.1
			c2.4,0,3.2,0.6,3,3c-0.3,2.6,0.8,6.1-0.5,7.6c-1.5,1.8-5.1,0.6-7.8,0.6c-12.9,0.1-25.8,0-38.7,0.1c-2,0-2.6-0.5-2.6-2.6
			C396.4,637,396.3,626.8,396.3,616.7z"/>
		<path class="st1" d="M1005.3,628.9c3.3,2.5,6.5,4.8,10.1,6.5c5,2.3,10.2,3.7,15.8,3c1.2-0.2,2.5-0.4,3.6-0.9
			c2.5-1,4.3-2.7,4.6-5.5c0.3-2.6-1-4.6-3.1-6.1c-2.8-2-6-2.9-9.2-3.8c-4-1.2-8.1-2.2-11.9-3.9c-6.9-3-11.2-8-11.2-15.9
			s3.9-13.5,11-16.4c12.7-5.2,24.8-2.8,36.5,3.5c1.4,0.7,0.9,1.6,0.5,2.6c-1.4,3-2.8,6-4.4,9.3c-5-2.7-10.1-5-15.7-6
			c-3.1-0.5-6.3-0.7-9.3,0.3c-2.2,0.7-4,2-4.4,4.4c-0.5,2.5,0.6,4.5,2.5,6.1c2.1,1.7,4.6,2.5,7,3.4c4.7,1.5,9.5,2.6,14,4.7
			c9.7,4.4,13.8,12.2,11,21.8c-2.4,8.3-9,12.2-16.9,13.7c-12.3,2.4-23.4-0.7-33.5-8c-1.7-1.2-2.4-2.2-1.1-4.3
			C1002.7,634.6,1003.9,631.8,1005.3,628.9z"/>
		<path class="st1" d="M359.2,650.3c-9.6-0.2-18.3-3.2-26-8.9c-1.7-1.2-2-2.4-1-4.2c1.4-2.6,2-6.4,4.1-7.5s4.4,2.6,6.8,3.9
			c6,3.2,12.2,5.6,19.2,4.7c1.3-0.2,2.7-0.5,3.9-1c5.3-2.3,5.9-8.2,1.2-11.5c-2.8-2-6-2.9-9.2-3.8c-4.4-1.3-8.9-2.4-13-4.5
			c-6.6-3.3-10.2-8.4-10-16c0.2-7.4,3.9-12.6,10.4-15.5c11.2-5,22.3-3.5,33.2,1.3c5.3,2.3,5.2,2.4,2.8,7.7c-0.9,2-1.5,4.6-3.1,5.6
			c-0.9,0.6-3.5-1.5-5.4-2.3c-4.9-2.1-10-3.8-15.5-3.5c-1.4,0.1-2.9,0.3-4.3,0.8c-4.7,1.7-5.6,6.6-1.9,10c2.6,2.3,5.8,3.2,9,4.3
			c3.8,1.2,7.6,2.2,11.3,3.7c9.3,3.9,13.2,9.5,12.7,18.4c-0.4,8-6.2,14.5-15,16.9C366.1,649.8,362.7,650.3,359.2,650.3z"/>
		<path class="st1" d="M991.6,629.7c0,3.4,0,6.7,0,10.1c0,1.1,0,2-1.1,2.7c-13.2,8.9-33.3,11.8-47.6,0.2
			c-10.6-8.6-14.4-19.9-11.6-33.1c2.7-12.9,11.1-21,23.5-24.6c12.5-3.7,24.2-1.5,35,5.9c1.7,1.2,2.6,2.1,0.8,4
			c-1.9,2.1-3.1,5.4-5.4,6.4c-2.3,0.9-4.4-2.4-6.7-3.6c-12-6-26-2.6-32,8.1c-4.4,7.7-3.7,17.4,1.6,24.3c5.6,7.3,15.1,10.4,24.2,8
			c8.1-2.1,8.1-2.1,8.1-10.4c0-3,0.1-6.1,0-9.1c0-1.4,0.4-2,1.8-1.8c0.1,0,0.2,0,0.3,0c2.9,0.1,6.7-1,8.5,0.5
			c1.9,1.5,0.4,5.5,0.6,8.4C991.7,627,991.6,628.4,991.6,629.7z"/>
		<path class="st1" d="M650.5,583.2c9.2,0.2,17.3,3.2,24.2,9.2c1.2,1,1.5,1.8,0.3,2.9c-0.2,0.1-0.3,0.3-0.4,0.5
			c-1.8,2.2-3.1,5.5-5.4,6.4c-2.5,1-4.2-2.7-6.5-4.1c-8.6-5.1-18.9-4.5-26.4,1.7c-6.9,5.8-9.4,15.9-6.1,24.6
			c3.3,8.5,11.9,14.2,21.2,13.8c5.7-0.2,10.9-2.3,15.2-6.1c1.9-1.7,2.8-1.2,4.1,0.5c0.8,1.1,1.8,2,2.7,3.1c3.1,3.4,3.1,3.4-0.7,6.4
			c-17.2,13.5-41.7,9.8-52.4-8c-13-21.7,1.8-49.4,27.1-50.7C648.5,583.4,649.6,583.3,650.5,583.2z"/>
		<path class="st1" d="M518.1,583.6c4.2,0,8.2,0.1,12.1,0c2-0.1,2,1.4,2.5,2.6c5.7,15.1,11.3,30.2,16.9,45.2
			c0.4,1.2,0.9,2.3,1.5,3.8c6.1-16.1,12.1-31.8,17.8-47.6c1.2-3.3,2.7-4.5,6-4c2,0.3,4,0.2,6,0c2.4-0.2,2.8,0.4,1.9,2.7
			c-5.8,14.2-11.5,28.5-17.2,42.8c-2.4,6.1-5,12.2-7.3,18.3c-0.6,1.7-1.4,2.5-3.3,2.4c-3.6-0.2-7.8,1-10.5-0.5s-3-6.1-4.3-9.4
			c-7.1-17.9-14.2-35.8-21.2-53.7C518.7,585.4,518.4,584.7,518.1,583.6z"/>
		<path class="st1" d="M592,616.6c0-10,0.1-19.9,0-29.9c0-2.3,0.3-3.5,3-3.2c3.2,0.4,7.4-1.3,9.4,0.7c1.8,1.9,0.5,6,0.5,9.1
			c0,17.6-0.1,35.2,0.1,52.8c0,3.2-0.9,4-3.8,3.6c-2-0.2-4-0.2-6,0c-2.8,0.3-3.2-0.8-3.2-3.3C592.1,636.5,592,626.6,592,616.6z"/>
		<path class="st0" d="M879.5,281.5c0-23.4,0-46.8-0.1-70.2c0-2.5,0.5-3.4,3.2-3.4c12,0.2,23.9-0.1,35.9,0.2
			c28.7,0.7,51.1,17,59.8,44.5c7.6,24,6.7,47.9-4.9,70.5c-9.5,18.5-24.9,29.2-45.7,31.2c-15.4,1.5-30.8,0.3-46.2,0.6
			c-2.1,0-2.1-1.1-2.1-2.6c0-6.1,0-12.2,0-18.3C879.5,316.6,879.5,299,879.5,281.5z"/>
		<path class="st0" d="M418.3,281.1c0-23.2,0.1-46.4-0.1-69.6c0-2.9,0.8-3.7,3.7-3.6c11.7,0.2,23.5-0.1,35.3,0.1
			c29.2,0.7,51.7,17.2,60.2,45.2c7.8,25.3,6.5,50.3-7.1,73.5c-10.8,18.4-27.8,27.4-49,28.1c-13.3,0.4-26.6,0-40,0.1
			c-2.7,0-3-1-3-3.3C418.3,328.2,418.3,304.7,418.3,281.1z"/>
		<path class="st0" d="M368,503.8c0-11.3,0.1-22.7-0.1-34c0-2.7,0.8-3.3,3.3-3.2c8.7,0.3,17.5-0.7,26.1,0.6
			c15.9,2.3,27.6,14.1,29.8,30.2c1.9,13.2-0.7,25.3-10.5,35c-6.4,6.3-14.2,9.1-23,9.3c-7.6,0.1-15.1-0.1-22.7,0.1
			c-2.3,0-3-0.4-3-2.9C368.1,527.1,368,515.5,368,503.8z"/>
		<path class="st0" d="M1030.9,504.2c0,21-16.1,37.7-36.5,37.8c-20.5,0.1-37.3-16.9-37.4-37.8c-0.1-20.7,16.5-37.4,37.2-37.6
			C1014.6,466.5,1030.9,483.2,1030.9,504.2z"/>
		<path class="st0" d="M536.1,466.7c20.3,0,36.8,16.9,36.7,37.7c-0.1,20.9-16.5,37.7-36.7,37.7c-20.4,0-37.6-17.4-37.4-37.9
			C498.8,483.3,515.5,466.7,536.1,466.7z"/>
		<path class="st0" d="M794.5,616.4c0-6.4,0.1-12.8,0-19.2c0-1.9,0.5-2.5,2.4-2.4c5.5,0.3,11.1-0.4,16.6,0.6
			c11.1,2.1,18,11.8,17,23.9c-0.9,10.9-9.5,18.9-20.5,19.1c-4.3,0.1-8.6-0.1-12.9,0.1c-2.3,0.1-2.7-0.8-2.7-2.8
			C794.6,629.2,794.5,622.8,794.5,616.4z"/>
		<path class="st0" d="M471.4,606.8c0-3.4,0-6.7,0-10.1c0-0.9-0.2-1.9,1.3-1.8c6.2,0.3,12.4-0.7,18.5,0.6c6.7,1.3,9.7,5.4,9.4,12.3
			c-0.3,6.2-4,10.2-10.4,11c-5.7,0.7-11.5,0.2-17.3,0.4c-1.6,0.1-1.6-0.8-1.6-2C471.4,613.7,471.4,610.2,471.4,606.8z"/>
		<path class="st0" d="M887.1,594.7c12.1,0,22.1,9.8,22.1,21.9c0,12.1-9.9,22.1-21.9,22.2c-12.3,0.1-22.6-10.1-22.5-22.3
			C865,604.5,874.9,594.8,887.1,594.7z"/>
	</g>
</g>
</svg>
